<svg width="1482" height="1436" viewBox="0 0 1482 1436" fill="none" xmlns="http://www.w3.org/2000/svg">
<g clip-path="url(#clip0_304_506)">
<path d="M469.3 1004.17C559.865 1067.99 650.435 1119.05 741 1119.05C831.565 1119.05 922.135 1067.99 1012.7 1004.17C938.05 982.148 900.176 949.279 899.08 905.561C899.08 897.768 899.139 886.702 899.193 865.923C899.193 862.623 899.202 859.244 899.218 855.784C899.366 800.068 899.608 726.544 899.949 651.872C970.749 562.95 944.74 458.702 922.555 461.301C895.355 464.508 659.702 247.825 614.501 236.715C569.3 225.605 454.48 261.472 434.72 361.394C414.96 461.315 406.7 713.18 481.65 813.734C502.977 842.348 536.569 853.541 582.426 847.312C582.49 868.225 582.618 879.962 582.92 903.646C582.332 949.354 544.462 982.172 469.3 1004.17Z" fill="url(#paint0_linear_304_506)"/>
<path d="M582.92 847.24C691.6 835.273 760.76 789.8 760.76 789.8C760.76 789.8 681.72 885.533 582.92 904.68V847.24Z" fill="#FC9F6A"/>
<path d="M936.13 653.38C970.167 574.065 1106.56 412.529 988.988 312.009C949.468 125.329 731.12 145.994 585.39 189.074C487.445 218.028 413.478 275.234 397.67 232.154C298.87 312.009 348.349 390.114 413.478 412.529C472.59 432.873 572.546 453.216 742.512 434.069C772.873 430.647 766.515 520.746 782.738 530.487C807.078 545.101 825.968 453.216 892.698 480.806C959.427 508.397 919.828 636.325 848.198 636.325C823.498 636.325 811.148 702.128 877.838 733.241C926.25 756.293 914.014 704.918 936.13 653.38Z" fill="url(#paint1_linear_304_506)"/>
<path d="M1259.7 1150.27C1306.73 1242.93 1333.8 1456.62 1333.8 1456.62H148.2C148.2 1456.62 175.281 1242.91 222.3 1150.27C269.319 1057.64 543.894 971.727 543.894 971.727C695.616 1029.13 788.464 1029.13 937.963 971.694C937.963 971.694 1212.67 1057.62 1259.7 1150.27Z" fill="url(#paint2_linear_304_506)"/>
<path d="M775.58 1005.2L800.28 1445.57H681.72L706.42 1005.2C706.42 1005.2 729.475 981.267 741 981.267C752.525 981.267 775.58 1005.2 775.58 1005.2Z" fill="url(#paint3_linear_304_506)"/>
<path d="M781.207 1094.67L703.525 1051.18L706.42 1005.2C721.79 989.245 733.317 981.267 741 981.267C748.683 981.267 760.21 989.245 775.58 1005.2L781.212 1094.67H781.207Z" fill="#645050"/>
<path d="M741 981.229L691.6 1067.43L538.46 976.48L582.92 914.254L741 970.837L899.08 914.254L943.54 976.48L790.4 1067.43L741 981.229Z" fill="white"/>
</g>
<defs>
<linearGradient id="paint0_linear_304_506" x1="716.901" y1="234.772" x2="716.901" y2="1119.05" gradientUnits="userSpaceOnUse">
<stop stop-color="#F7B186"/>
<stop offset="1" stop-color="#FFC299"/>
</linearGradient>
<linearGradient id="paint1_linear_304_506" x1="688.836" y1="159.817" x2="688.836" y2="738.91" gradientUnits="userSpaceOnUse">
<stop stop-color="#1D0024"/>
<stop offset="1" stop-color="#100014"/>
</linearGradient>
<linearGradient id="paint2_linear_304_506" x1="741" y1="971.694" x2="741" y2="1456.62" gradientUnits="userSpaceOnUse">
<stop stop-color="#1D0024"/>
<stop offset="1" stop-color="#100014"/>
</linearGradient>
<linearGradient id="paint3_linear_304_506" x1="741" y1="981.267" x2="741" y2="1445.57" gradientUnits="userSpaceOnUse">
<stop stop-color="#806A6A"/>
<stop offset="1" stop-color="#665654"/>
</linearGradient>
<clipPath id="clip0_304_506">
<rect width="1482" height="1436" rx="100" fill="white"/>
</clipPath>
</defs>
</svg>
